<svg width="96" height="96" viewBox="0 0 96 96" fill="none" xmlns="http://www.w3.org/2000/svg">
<path fill-rule="evenodd" clip-rule="evenodd" d="M96.0008 18.2366C92.4675 19.8022 88.6763 20.864 84.6929 21.3381C88.7602 18.9025 91.8736 15.0392 93.3492 10.4501C89.534 12.7056 85.3227 14.3434 80.8355 15.2312C77.2422 11.398 72.1312 9.01038 66.4622 9.01038C55.5862 9.01038 46.7679 17.8287 46.7679 28.6987C46.7679 30.2403 46.9418 31.7461 47.2778 33.1859C30.913 32.364 16.4018 24.5235 6.6896 12.6096C4.99188 15.5131 4.02607 18.8963 4.02607 22.5078C4.02607 29.3406 7.50545 35.3694 12.7845 38.8967C9.55706 38.7887 6.5216 37.9009 3.86419 36.4251V36.6711C3.86419 46.2093 10.6549 54.1698 19.6592 55.9815C18.0094 56.4254 16.2698 56.6714 14.4702 56.6714C13.1985 56.6714 11.9687 56.5454 10.7629 56.3054C13.2703 64.134 20.5411 69.8269 29.1555 69.9829C22.4187 75.262 13.9243 78.3994 4.69807 78.3994C3.10843 78.3994 1.54262 78.3034 0.000976562 78.1295C8.71737 83.7265 19.0654 86.9899 30.1873 86.9899C66.4145 86.9899 86.2168 56.9834 86.2168 30.9603L86.1508 28.4109C90.02 25.6512 93.3673 22.1839 96.0008 18.2366ZM55.7754 32.3125H52.1124H52V41.375L54.6843 38.9082C57.3143 42.5948 61.6262 45 66.5 45C73.895 45 79.9959 39.4646 80.8876 32.3125H77.2246C76.3618 37.4564 71.8886 41.375 66.5 41.375C62.6829 41.375 59.3225 39.4066 57.3831 36.4287L61.8618 32.3125H55.7754ZM52.1124 28.6875C53.0041 21.5354 59.105 16 66.5 16C71.43 16 75.7855 18.4596 78.4045 22.2205L81 19.625V28.6875H80.8876H77.2246H75.5625H71.9375L75.7873 24.8377C73.8769 21.7112 70.4313 19.625 66.5 19.625C61.1115 19.625 56.6382 23.5436 55.7755 28.6875H52.1124Z" fill="black"/>
</svg>
